<?xml version="1.0" encoding="UTF-8"?>
<svg id="Vrstva_1" xmlns="http://www.w3.org/2000/svg" baseProfile="tiny" version="1.2" viewBox="0 0 1024 1024">
  <!-- Generator: Adobe Illustrator 30.0.0, SVG Export Plug-In . SVG Version: 2.1.1 Build 123)  -->
  <g>
    <path d="M42,528c.66-1.57,2.27-2.85,3.53-3.97,65.08-58.19,141.23-109.03,207.16-166.84,18.95-14.1,41.18-22.11,64.77-24.23l187.55.06c-42.83,62.18-83.14,126.19-126.41,188.08-1.38,1.97-2.9,4.59-3.59,6.91h-81l28-40h-90c-.02-1.71,2.31-3.7,3.47-4.99,11.73-13.01,23.92-25.66,35.23-39.03l81.3-.47,37.99-52.51h-76.5c-8.07,0-22.52,8.05-28.97,13.03l-141.03,123.97H42Z" fill="#fff"/>
    <path d="M795,333l-38.7,57.02c-42.27-.42-84.57.47-126.84.03-2.85-.03-5.3-1.05-7.91-1.09-21.26-.29-43.86-4.52-53.54,19.04h175l-61.49,90.01c-16.83,18.97-41.09,27.66-65.97,30.03l-199.54-.05,34.99-50.5,171.49-.51c12.98-1.16,22.26-8.18,27.52-19.98h-185l71.49-103.01c8.21-9.01,31.95-20.99,44.01-20.99h214.5Z" fill="#fff"/>
  </g>
  <path d="M1005,333l-149.82,110.49,115.82,148.51h-79.5c-9.2,0-23.94-5.8-30.01-12.99-31.67-44.04-69.33-85.19-100.88-129.12-1.67-2.33-6.05-6.89-4.41-9.71l145.31-107.19h103.5Z" fill="#d63b2d"/>
  <path d="M633.81,544.22c.59.35.79,2.54,1.7,2.78,2.04.54,1.88-2.7,3.19-3.02,9.45-2.3,3.42,6.19.28,7.5-6.47,2.7-9.26-1.81-10.98-7.47,1.67.24,4.47-.58,5.8.21Z" fill="#010101"/>
  <g>
    <path d="M488,591l7.46-36.04c.99-1.41,14.39-1.26,17.09-1.01,11.89,1.13,12.87,12.34,3.44,17.55,6.62,2.71,6.43,11.21,1.52,15.51-1.66,1.45-8.14,3.99-10.01,3.99h-19.5ZM500,568.99c4.78,1.09,18.88-.37,13.56-8.06-.92-1.32-10.94-1.29-11.47-.84-.35.3-1.52,7.48-2.09,8.9ZM497,585c5.13.59,19.73.48,15.51-8.01-1.33-2.67-11.88-2.73-13.57-1.55-1.12.79-2.49,9.01-1.95,9.56Z" fill="#010101"/>
    <path d="M640,575.01l6.99,15.98c-12.43,3.59-9.61-9.72-14.48-14.01-1.35-1.19-6.6-1.56-7.41-.88s-2.06,14-3.24,14.76-5.98-.25-7.86.12l8.09-36.89c6.1.32,13.37-.85,19.31,0,13.16,1.86,10.31,19.54-1.41,20.92ZM627,570c3.56-.45,8.75.91,11.98-.52,4.02-1.78,4.47-8.51-.5-9.45-9.37-1.77-11.7.73-11.48,9.97Z" fill="#010101"/>
    <path d="M335.69,571.7c-1.38,1.56-5.52,3.35-7.69,3.32,1.72,1.92,7.94,15.07,7,15.98-1.97-.38-6.47.68-7.83-.16-2.51-1.54-2.61-15.31-10.66-14.93-6.04.29-3.41,12.55-6.44,14.66-1.53,1.06-5.11.22-7.06.44l7.95-36.56c5.84-.16,20.21-2.09,24.59,1.52s3.59,11.84.15,15.73ZM315,569.99c4.65-.39,13.7,1.9,15.58-3.95,2.68-8.31-12.67-6.64-13.49-5.94-.45.38-1.45,8.32-2.09,9.89Z" fill="#010101"/>
    <path d="M809,554c.32.32-.8,6.63-1.11,6.89-1.49,1.27-17.74-1.43-19.44,1.06-.83,1.22-.24,4.41-1.45,6.05h19c-.84,1.35-.77,6.73-1.01,6.99-.69.73-19.29-.7-19.98.02-.31.33-.6,7.52-1.01,8.99h20c.34,1.31-1.39,7-2.5,7h-26.5l7-37h27Z" fill="#010101"/>
    <path d="M283.78,553.23c27.44-3,21.66,42.84-7.05,37.53-18.05-3.33-12.37-35.41,7.05-37.53ZM282.71,560.21c-8.94,2.01-13.3,23.66-2.13,24.78,14.33,1.43,19.79-28.76,2.13-24.78Z" fill="#010101"/>
    <path d="M549,575c.17,2.21-2.45,15.44-3.13,15.87-1.14.73-5.14-.19-6.87.13l7.05-36.96,7.95-.04-3,13.99h14c.47-2.07,2.43-13.42,3.13-13.87,1.21-.78,5.98.25,7.86-.12-1.93,4.5-6.66,35.66-8.09,36.89-.75.65-6.24-.24-7.9.09l3-15.99h-14Z" fill="#010101"/>
    <path d="M400,554.01l-2.99,13.99c8.71-6.49,14.58-16.75,26.99-13.99-2.18,3.77-15.03,11.43-15.87,14.7s10.48,17.13,9.86,22.29c-12.21,2.89-11.21-9.59-16.51-17.01-7.36.46-8.81,16.24-9.59,16.91-.72.62-5.37-.19-6.91.1.66-4.55,5.67-35.68,7.1-36.9.77-.66,6.23.24,7.9-.1Z" fill="#010101"/>
    <path d="M162.78,553.23c24.63-2.69,22.34,33.97,1.48,37.53-27.93,4.76-23.47-35.12-1.48-37.53ZM161.71,560.21c-8.44,1.92-12.52,19.49-5.1,23.67,14.85,8.38,24.99-28.19,5.1-23.67Z" fill="#010101"/>
    <path d="M595.78,553.23c26.23-2.77,21.57,41.33-6.2,37.68-19.19-2.53-15.1-35.43,6.2-37.68ZM593.71,560.22c-9.48,2.18-13.84,28.66,2.32,24.31,10.51-2.82,15.09-28.31-2.32-24.31Z" fill="#010101"/>
    <path d="M671.78,553.23c24.9-2.64,20.7,34.92.64,37.67-27.6,3.79-23.65-35.23-.64-37.67ZM669.71,560.22c-8.38,1.94-13.72,24.36-1.19,24.85,14.02.55,19.17-29.02,1.19-24.85Z" fill="#010101"/>
    <path d="M90,554c1.66,1.68-5.19,22.33-4.72,26.39.73,6.3,10.43,5.9,13.49-.11,2-3.93,5.23-25.42,6.36-26.14,1.21-.78,5.98.25,7.86-.12-3.92,11.11-2.18,34.68-17.58,36.91-12.99,1.88-18.48-2.3-17.29-15.29.21-2.27,3.73-19.8,4.33-20.66,1.22-1.75,5.53-.75,7.55-.96Z" fill="#010101"/>
    <path d="M466,554c1.15,6.12-7.13,25.39-3.03,29.53,3.51,3.54,9.63.74,11.79-3.26,2.3-4.26,5.31-25.29,6.33-26.17.76-.65,6.24.24,7.9-.09-2.82,8.52-3.43,29.14-11.04,34.45-6.19,4.32-22.44,4.1-23.89-5.01-.57-3.58,3.08-26.31,4.82-28.86.95-1.39,5.36-.26,7.12-.58Z" fill="#010101"/>
    <path d="M225.69,557.31c1.06,1.17,3.17,6.81,2.32,7.69-2.13-.38-5.6.56-7.39.07-.88-.24-.74-2.77-2.05-4.12-2.75-2.84-9.99-2.87-10.28,1.7-.38,5.98,13.12,5.22,16.58,11.98,9.09,17.8-30.51,24.36-27.86,4.38,10.47-1.88,4.97-.19,8.52,3.97,4.51,5.28,16.25-.24,11.48-5.49s-18.33-1.36-15.94-15.94c1.63-9.98,18.77-10.71,24.62-4.24Z" fill="#010101"/>
    <path d="M66.01,553.99l4.99,37c-9.95.85-6.42-.82-8.14-6.34-.79-2.53-13.5-2.33-15.37-.66-3.41,3.05-.95,9.43-11.48,7.01l19.94-35.55c2.52-2.57,6.74-1.14,10.06-1.45ZM62,576.99l-2.49-13.99c-1.62,1.28-8.31,13.26-7.5,13.99h9.99Z" fill="#010101"/>
    <path d="M240.01,577.01c-1.09,7.32.02,16.36-10.01,13.99l7.95-36.56c9.43-.61,28.08-3.88,26.01,10.98-1.55,11.16-14.95,12.66-23.95,11.59ZM242,570.99c4.73.24,11.78.78,13.57-4.95,2.41-7.7-10.85-6.65-11.53-6-.4.39-1.45,9.28-2.04,10.95Z" fill="#010101"/>
    <path d="M774,566c-1.71-.32-7.04.59-7.86-.15-.58-.53-.41-4.64-3.86-5.65-12.41-3.65-18.51,21.28-8.31,24.39,7.41,2.26,9.83-7.51,10.67-7.67,1.91-.38,5.1,1.54,7.37,1.09-2.09,15.07-28.54,19.03-30.92,2.41-1.3-9.07,1.11-18.55,8.98-23.85,9.77-6.58,23.54-3.58,23.94,9.43Z" fill="#010101"/>
    <path d="M701.95,554.05c.95.92,3.21,25.91,4.55,25.96l13.99-25.02c2.11-1.89,5.8-.73,8.51-.98l-20.66,37.03c-1.59-.29-7.78.39-8.28-.09-1.34-1.3-4.39-32.32-6.05-36.94,1.56.28,7.42-.46,7.95.05Z" fill="#010101"/>
    <path d="M145,554c1.13,11.74-7.35,4.85-10.87,7.13-1.66,1.08-5.1,28.05-7.07,29.43-1.52,1.06-5.1.22-7.06.45-1.19-1.2,5.05-26.23,6-29.99h-10s0-7.01,0-7.01h29Z" fill="#010101"/>
    <path d="M373,554c1.8,11.65-9.15,4.55-11.54,7.96-2,2.85-4.3,27.11-6.39,28.61-1.46,1.04-5.14.21-7.07.44-1.23-1.25,4.75-26.32,6-29.99h-10c-.44-.46.65-7.01,1-7.01h28Z" fill="#010101"/>
    <path d="M421,591l7.01-36.99h7.99s-6,29.99-6,29.99h18c-.16,1.24-1.31,7-2.5,7h-24.5Z" fill="#010101"/>
    <path d="M739,554c-2.1,6.49-4.43,31.95-7.48,36.02-1.37,1.82-5.45.74-7.53.97,1.53-4.57,5.7-35.64,7.05-36.95.52-.51,6.4.24,7.96-.05Z" fill="#010101"/>
    <path d="M497,585c-.54-.55.82-8.77,1.95-9.56,1.68-1.18,12.24-1.12,13.57,1.55,4.22,8.49-10.38,8.6-15.51,8.01Z" fill="#fefefe"/>
    <path d="M500,568.99c.57-1.42,1.74-8.6,2.09-8.9.52-.45,10.55-.49,11.47.84,5.32,7.69-8.78,9.15-13.56,8.06Z" fill="#fefefe"/>
    <path d="M627,570c-.22-9.24,2.1-11.74,11.48-9.97,4.97.94,4.52,7.67.5,9.45-3.23,1.43-8.42.08-11.98.52Z" fill="#fefefe"/>
    <path d="M315,569.99c.65-1.57,1.65-9.51,2.09-9.89.82-.69,16.17-2.37,13.49,5.94-1.88,5.85-10.94,3.56-15.58,3.95Z" fill="#fefefe"/>
    <path d="M282.71,560.21c17.67-3.98,12.2,26.21-2.13,24.78-11.17-1.12-6.81-22.77,2.13-24.78Z" fill="#fefefe"/>
    <path d="M161.71,560.21c19.89-4.51,9.75,32.05-5.1,23.67-7.42-4.18-3.34-21.76,5.1-23.67Z" fill="#fefefe"/>
    <path d="M593.71,560.22c17.4-3.99,12.82,21.49,2.32,24.31-16.16,4.34-11.8-22.14-2.32-24.31Z" fill="#fefefe"/>
    <path d="M669.71,560.22c17.99-4.17,12.84,25.4-1.19,24.85-12.53-.49-7.2-22.91,1.19-24.85Z" fill="#fefefe"/>
    <path d="M62,576.99h-9.99c-.81-.73,5.88-12.71,7.5-13.99l2.49,13.99Z" fill="#fefefe"/>
    <path d="M242,570.99c.59-1.67,1.64-10.56,2.04-10.95.68-.66,13.94-1.7,11.53,6-1.8,5.73-8.85,5.19-13.57,4.95Z" fill="#fefefe"/>
  </g>
</svg>